<svg width="30" height="31" viewBox="0 0 30 31" fill="none" xmlns="http://www.w3.org/2000/svg">
<g clip-path="url(#clip0)">
<path d="M30 5.88884C28.8958 6.39441 27.7111 6.73729 26.4663 6.89036C27.7373 6.10386 28.7103 4.85637 29.1714 3.37444C27.9791 4.10279 26.6631 4.63167 25.2608 4.91837C24.138 3.68054 22.5407 2.90955 20.7692 2.90955C17.3705 2.90955 14.6147 5.75714 14.6147 9.26723C14.6147 9.76505 14.6691 10.2513 14.7741 10.7162C9.66006 10.4508 5.12531 7.91898 2.09026 4.07179C1.55972 5.00939 1.2579 6.10189 1.2579 7.26808C1.2579 9.4745 2.34521 11.4213 3.99491 12.5603C2.98634 12.5255 2.03776 12.2388 1.20732 11.7622V11.8416C1.20732 14.9217 3.32942 17.4923 6.14325 18.0773C5.62771 18.2207 5.08408 18.3001 4.52168 18.3001C4.12428 18.3001 3.73996 18.2594 3.36315 18.1819C4.14673 20.7099 6.41884 22.5482 9.11085 22.5986C7.0056 24.3033 4.35109 25.3164 1.4679 25.3164C0.97114 25.3164 0.481826 25.2854 6.10352e-05 25.2292C2.72393 27.0366 5.95771 28.0904 9.4333 28.0904C20.7543 28.0904 26.9425 18.4008 26.9425 9.99755L26.9219 9.17428C28.131 8.28313 29.177 7.16349 30 5.88884Z" fill="white"/>
</g>
<defs>
<clipPath id="clip0">
<rect width="30" height="31" fill="white"/>
</clipPath>
</defs>
</svg>
